<?xml version="1.0" encoding="utf-8"?>
<svg fill='#fff' version="1.1" id="Layer_1" xmlns="http://www.w3.org/2000/svg" xmlns:xlink="http://www.w3.org/1999/xlink" x="0px" y="0px"
	 viewBox="0 0 512 512" style="enable-background:new 0 0 512 512;" xml:space="preserve">
<g>
	<path d="M448,224v-64h-32v64h-64v32h64v64h32v-64h64v-32H448z M160,224v64h90.52c-13.6,38.33-49.85,63.95-90.52,64
		c-52.97-0.07-95.93-43.02-96-96c0.07-53,43.03-95.95,96-96c22.95,0,45.05,8.2,62.2,23.15l42-48.25C235.3,109.78,198.3,95.95,160,96
		C71.68,96.1,0.1,167.68,0,256c0.1,88.33,71.68,159.9,160,160c88.32-0.1,159.92-71.67,160-160v-32H160z"/>
</g>
</svg>
