<?xml version="1.0" encoding="utf-8"?>
<svg fill='#fff' version="1.1" id="Layer_1" xmlns="http://www.w3.org/2000/svg" xmlns:xlink="http://www.w3.org/1999/xlink" x="0px" y="0px"
	 viewBox="0 0 512 512" style="enable-background:new 0 0 512 512;" xml:space="preserve">
<g>
	<path d="M267.9,0C128.2,0,57.8,100.2,57.8,183.7c0,50.6,19.2,95.6,60.2,112.3c6.8,2.8,12.8,0.1,14.7-7.3l6-23.7
		c2-7.3,1.2-9.9-4.2-16.3c-11.9-14-19.4-32.1-19.4-57.7c0-74.3,55.6-140.8,144.8-140.8c79,0,122.4,48.3,122.4,112.7
		c0,84.8-37.6,156.4-93.3,156.4c-30.8,0-53.8-25.4-46.4-56.6c8.8-37.3,25.9-77.5,25.9-104.4c0-24.1-13-44.1-39.6-44.1
		c-31.4,0-56.8,32.5-56.8,76.1c0,27.8,9.5,46.5,9.5,46.5L143.8,397c-11.2,47.6-1.7,105.9-0.8,111.8c0.4,3.4,4.9,4.3,6.9,1.7
		c2.9-3.8,40.4-50.1,53.1-96.3c3.7-13.1,20.7-80.7,20.7-80.7c10.3,19.4,40.1,36.6,71.8,36.6c94.6,0,158.7-86.1,158.7-201.6
		C454.1,81.2,380.2,0,267.9,0z"/>
</g>
</svg>
