<?xml version="1.0" encoding="utf-8"?>
<svg fill='#fff' version="1.1" id="Layer_1" xmlns="http://www.w3.org/2000/svg" xmlns:xlink="http://www.w3.org/1999/xlink" x="0px" y="0px"
	 viewBox="0 0 512 512" style="enable-background:new 0 0 512 512;" xml:space="preserve">
<g>
	<path d="M512,93.8c-19.3,8.8-38.6,14-61.4,17.5c21-14,38.6-33.3,47.3-57.9c-21,12.3-43.8,21-66.6,26.3
		c-19.3-21-47.3-33.3-77.1-33.3c-57.9,0-107,47.3-107,107c0,8.8,1.8,15.8,3.5,24.5c-87.7-3.5-166.6-47.3-219.2-110.5
		c-8.8,12.3-14,29.8-14,49.1c0,36.8,19.3,70.1,47.3,87.7c-17.5,0-33.3-5.3-47.3-14v1.8c0,50.8,36.8,94.7,85.9,103.4
		c-8.8,1.8-17.5,3.5-28,3.5c-7,0-14,0-19.3-1.8c14,42.1,52.6,73.6,99.9,73.6c-36.8,28.1-82.4,45.6-131.5,45.6
		c-8.8,0-17.5,0-24.5-1.8c42.1,33.3,98.2,50.9,157.8,50.9c194.6,0,301.6-161.3,301.6-301.6v-14C480.4,134.1,498,116.6,512,93.8z"/>
</g>
</svg>
