<?xml version="1.0" encoding="utf-8"?>
<!-- Generator: Adobe Illustrator 28.0.0, SVG Export Plug-In . SVG Version: 6.00 Build 0)  -->
<svg version="1.1" id="Layer_1" xmlns="http://www.w3.org/2000/svg" xmlns:xlink="http://www.w3.org/1999/xlink" x="0px" y="0px"
	 viewBox="0 0 512 512" style="enable-background:new 0 0 512 512;" xml:space="preserve">
<g>
	<path fill="#cc0000" d="M23.27,116.36h23.27c0.02-12.84,10.43-23.25,23.27-23.27l372.36,0c12.85,0.02,23.25,10.43,23.27,23.27v279.27
		c-0.02,12.85-10.43,23.25-23.27,23.27H69.82c-12.84-0.02-23.25-10.43-23.27-23.27V116.36H23.27H0v279.27
		c0.01,38.57,31.25,69.8,69.82,69.82h372.36c38.57-0.01,69.8-31.25,69.82-69.82V116.36c-0.01-38.57-31.25-69.8-69.82-69.82H69.82
		C31.25,46.56,0.02,77.79,0,116.36H23.27z"/>
	<path fill="#cc0000" d="M8.73,181.08l174.57,139.66c21.22,16.98,47.01,25.51,72.69,25.5c25.68,0.01,51.47-8.52,72.69-25.5l174.57-139.66
		l-29.08-36.35L299.62,284.4c-12.78,10.22-28.15,15.29-43.62,15.3c-15.47-0.01-30.84-5.08-43.62-15.3L37.81,144.74L8.73,181.08
		L8.73,181.08z"/>
</g>
</svg>
